<?xml version="1.0" standalone="no"?>
<!DOCTYPE svg PUBLIC "-//W3C//DTD SVG 20010904//EN"
 "http://www.w3.org/TR/2001/REC-SVG-20010904/DTD/svg10.dtd">
<svg version="1.0" xmlns="http://www.w3.org/2000/svg"
 width="3000.000000pt" height="2000.000000pt" viewBox="0 0 3000.000000 2000.000000"
 preserveAspectRatio="xMidYMid meet">
<metadata>
Created by potrace 1.16, written by Peter Selinger 2001-2019
</metadata>
<g transform="translate(0.000000,2000.000000) scale(0.100000,-0.100000)"
fill="#000000" stroke="none">
<path d="M1 17648 c1 -1795 4 -2343 12 -2311 7 23 20 50 29 60 17 16 18 16 18
-12 0 -17 -9 -41 -20 -55 -11 -14 -20 -40 -20 -57 0 -18 -4 -33 -10 -33 -16 0
-13 -410 3 -414 251 -78 373 -123 382 -141 6 -12 27 -42 48 -67 44 -53 80 -67
108 -42 18 16 20 16 37 1 21 -19 63 -22 79 -6 13 13 43 -1 165 -80 l88 -56 -6
-47 c-4 -30 -1 -61 9 -90 9 -25 21 -122 29 -233 17 -247 17 -1021 0 -1203 -18
-189 -75 -631 -147 -1137 -24 -170 -63 -447 -85 -615 -22 -168 -44 -317 -48
-332 -7 -26 -9 -24 -149 96 -78 68 -161 138 -184 157 -23 19 -106 89 -185 157
-78 67 -145 122 -148 122 -3 0 -6 -163 -6 -361 l0 -362 291 -286 c277 -272
291 -288 285 -316 -12 -62 -108 -912 -126 -1130 -6 -71 -15 -170 -20 -220 -54
-542 -96 -1119 -106 -1488 -4 -125 -10 -227 -15 -227 -4 0 -21 13 -38 29 -18
17 -47 31 -71 35 -22 3 -40 10 -40 14 0 4 -11 20 -25 36 -14 16 -25 35 -25 41
0 7 -17 27 -37 44 -35 30 -37 35 -37 94 -1 57 -8 76 -28 77 -5 0 -8 -1640 -8
-3645 l0 -3645 15000 0 15000 0 0 3704 0 3704 -24 6 c-14 3 -31 3 -39 0 -24
-9 -62 23 -82 67 -18 38 -21 40 -51 34 -18 -3 -35 -1 -39 5 -9 15 -48 12 -73
-6 -19 -13 -31 -14 -65 -5 -33 8 -58 7 -112 -6 -93 -21 -101 -26 -129 -81 -13
-26 -34 -56 -46 -67 -23 -20 -35 -23 -152 -27 -56 -3 -71 -7 -95 -29 -15 -14
-44 -36 -64 -48 -33 -19 -42 -20 -88 -10 -55 12 -65 25 -26 35 14 3 25 11 25
18 0 10 -14 100 -40 271 -11 73 -80 419 -104 520 -18 78 -119 456 -149 560
l-23 80 -74 12 c-41 6 -117 15 -168 19 -77 6 -92 10 -90 23 4 18 94 93 186
153 75 50 75 51 28 215 -79 274 -209 568 -344 782 -31 49 -39 71 -36 95 97
691 232 1414 374 2001 81 332 262 973 291 1027 7 14 20 18 52 17 31 -2 54 5
85 24 23 15 45 27 48 27 4 0 24 18 44 40 37 40 38 40 109 40 49 0 82 5 100 16
25 15 30 15 65 0 36 -15 40 -15 66 4 15 11 44 20 63 20 57 0 104 26 126 69 14
26 29 41 47 45 15 4 62 23 104 42 75 35 78 35 115 20 33 -14 39 -14 58 -1 12
9 44 15 74 15 l53 0 0 3285 0 3285 -6905 0 -6905 0 0 -22 c0 -21 -6 -144 -9
-190 0 -10 -6 -18 -13 -18 -25 0 -78 -45 -78 -67 0 -14 -6 -23 -15 -23 -9 0
-25 -9 -36 -19 -19 -17 -19 -24 -10 -76 12 -63 9 -75 -18 -75 -24 0 -39 -19
-47 -61 -4 -19 -13 -38 -21 -42 -7 -4 -13 -14 -13 -22 0 -7 -13 -23 -29 -34
-32 -23 -51 -85 -32 -104 14 -14 14 -50 1 -63 -14 -14 -16 -97 -2 -102 15 -5
15 -34 0 -67 -9 -21 -9 -31 0 -46 7 -10 12 -30 12 -44 0 -14 4 -25 9 -25 6 0
18 -13 28 -30 9 -16 23 -30 30 -30 7 0 13 -5 13 -12 0 -19 50 -78 66 -78 8 0
27 -6 43 -14 24 -13 27 -19 25 -58 -10 -152 -10 -157 11 -173 11 -8 36 -15 55
-14 74 2 77 1 99 -44 12 -24 32 -49 46 -55 17 -8 25 -20 25 -36 0 -26 27 -36
109 -40 39 -2 44 -5 57 -35 8 -18 23 -35 33 -38 11 -3 37 -29 57 -59 21 -30
41 -54 46 -54 4 0 8 -11 8 -24 0 -13 3 -26 7 -28 5 -1 19 -18 31 -36 29 -41
23 -74 -19 -111 -16 -14 -29 -36 -29 -48 0 -12 -8 -38 -17 -58 -14 -30 -15
-38 -3 -60 8 -14 13 -43 13 -63 -1 -27 5 -42 24 -60 21 -19 24 -30 20 -58 -7
-40 -4 -41 30 -14 14 11 30 17 35 14 5 -3 39 2 75 12 l66 18 23 -27 c26 -30
52 -35 60 -12 12 30 24 14 24 -31 0 -81 -17 -126 -61 -157 -21 -16 -39 -34
-39 -40 0 -22 84 -65 140 -72 31 -4 77 -20 107 -36 51 -29 51 -30 58 -89 6
-50 3 -67 -14 -103 -12 -24 -21 -51 -21 -61 0 -10 18 -63 39 -119 22 -56 42
-119 46 -139 6 -37 7 -38 48 -38 23 1 73 7 110 14 l68 13 84 -64 c92 -68 96
-78 68 -138 -16 -33 -16 -39 -1 -86 26 -81 86 -165 137 -191 57 -29 107 -98
122 -167 10 -51 9 -58 -27 -148 l-37 -95 31 -93 c31 -94 44 -116 116 -190 39
-40 76 -100 76 -121 0 -7 19 -29 41 -49 l42 -38 -12 -49 c-14 -64 -15 -60 15
-94 25 -28 117 -204 144 -274 21 -54 78 -125 121 -149 24 -14 50 -42 71 -76
26 -44 38 -55 67 -60 20 -4 65 -23 100 -42 63 -35 169 -63 238 -63 26 0 37 8
68 50 l37 50 62 0 c60 0 63 -1 103 -42 22 -24 50 -61 61 -83 11 -22 36 -55 55
-73 31 -30 39 -33 83 -30 l49 3 5 -46 c3 -27 17 -63 33 -86 15 -21 27 -43 27
-49 0 -29 23 -85 44 -105 13 -13 42 -46 65 -74 40 -48 41 -52 35 -101 l-6 -51
32 -7 c18 -3 43 -6 56 -6 13 0 24 -3 24 -8 0 -10 80 -94 114 -118 38 -27 51
-102 31 -172 -7 -26 -17 -69 -21 -96 l-7 -48 30 6 c16 4 41 3 54 -3 26 -10 59
2 59 20 0 17 71 99 85 99 7 0 18 7 25 15 9 11 23 13 50 9 20 -3 46 -1 57 4 11
6 55 15 98 21 64 8 83 7 110 -6 26 -13 42 -14 73 -6 22 6 46 7 54 2 35 -19 88
29 88 80 0 12 8 24 18 28 9 3 24 12 32 18 20 17 65 27 124 30 38 2 53 7 67 26
15 20 26 24 77 24 48 0 66 -5 98 -28 21 -15 48 -33 59 -41 16 -10 34 -11 85
-4 130 19 190 5 190 -45 0 -12 8 -27 18 -34 16 -9 20 -37 31 -209 47 -739 142
-1417 342 -2434 47 -236 199 -975 235 -1135 18 -81 88 -415 145 -695 45 -224
144 -744 189 -1000 24 -135 32 -218 37 -363 l6 -188 -24 5 c-86 20 -410 32
-503 20 l-46 -7 34 -42 c164 -200 386 -651 502 -1020 l38 -120 7 -645 c4 -355
10 -698 14 -763 5 -74 4 -117 -2 -117 -5 0 -19 9 -31 20 -28 27 -55 25 -87 -4
-15 -14 -40 -28 -55 -31 -16 -4 -32 -15 -35 -25 -3 -11 -27 -29 -53 -41 -26
-12 -54 -25 -62 -29 -8 -4 -29 -5 -46 -3 -36 6 -90 -27 -120 -72 -11 -17 -30
-31 -44 -33 -14 -2 -32 -10 -40 -17 -8 -7 -28 -15 -43 -19 -16 -4 -38 -17 -50
-30 -12 -12 -44 -28 -72 -35 -27 -7 -60 -18 -72 -23 -12 -6 -41 -8 -67 -4 -44
7 -45 6 -72 -33 -14 -22 -34 -43 -44 -46 -10 -3 -33 -26 -52 -52 -18 -25 -43
-56 -55 -69 -33 -36 -47 -89 -33 -125 12 -27 10 -32 -14 -57 -68 -70 -77 -84
-75 -115 1 -18 -3 -45 -10 -60 -6 -16 -11 -39 -11 -51 0 -35 -32 -57 -97 -66
-64 -8 -101 4 -136 48 -10 12 -26 22 -36 22 -23 0 -51 -31 -51 -56 -1 -11 -16
-29 -36 -42 -30 -19 -44 -21 -90 -16 -48 6 -58 4 -79 -16 -14 -13 -25 -29 -25
-36 0 -7 -12 -26 -26 -43 -20 -24 -34 -31 -60 -31 -25 0 -43 -8 -62 -28 -15
-15 -40 -31 -57 -37 -22 -7 -36 -23 -53 -58 -24 -51 -44 -66 -66 -48 -19 16
-115 5 -137 -15 -10 -9 -21 -25 -24 -35 -6 -18 -44 -31 -105 -35 -19 -1 -58
-5 -86 -9 -34 -5 -54 -4 -58 4 -10 16 -41 14 -56 -4 -26 -32 -78 -46 -205 -57
-114 -10 -133 -14 -152 -34 -20 -20 -78 -44 -109 -44 -19 0 -64 -55 -64 -78 0
-25 -33 -42 -165 -89 -38 -14 -77 -31 -85 -38 -10 -9 -20 -11 -30 -5 -32 20
-43 12 -37 -28 6 -37 6 -38 -26 -37 -17 0 -37 -5 -44 -11 -7 -7 -35 -17 -64
-24 -40 -10 -56 -10 -74 0 -18 9 -38 10 -82 2 -73 -13 -108 -6 -128 24 -21 32
-86 49 -139 35 -23 -6 -57 -13 -76 -16 -19 -4 -67 -18 -107 -32 -59 -21 -77
-23 -102 -15 -17 6 -46 8 -66 5 -19 -3 -35 -2 -35 1 0 4 -7 60 -15 124 -8 64
-19 210 -25 325 -5 114 -15 227 -21 251 -8 31 -42 82 -118 179 -130 163 -170
222 -222 327 -87 177 -100 280 -104 812 -2 230 -6 445 -10 478 -4 33 -4 60 1
60 4 0 28 -13 53 -29 99 -64 210 -101 302 -101 46 0 112 13 127 25 5 4 -83
175 -139 272 -149 253 -280 414 -402 494 -158 103 -481 175 -892 201 -241 14
-421 2 -675 -46 -229 -43 -481 -82 -624 -96 -162 -16 -389 -14 -477 5 -134 29
-182 34 -399 45 -429 21 -596 55 -707 146 -34 28 -61 71 -139 221 -118 226
-148 306 -142 380 3 32 12 61 23 73 10 11 61 43 114 71 137 73 255 152 319
212 67 63 127 153 136 204 4 21 10 47 13 57 5 18 0 19 -123 13 -182 -9 -365
-53 -497 -119 -54 -27 -58 -28 -82 -12 -14 9 -25 19 -24 23 2 14 225 209 359
312 80 61 177 141 217 176 l72 64 41 -30 c23 -16 71 -40 108 -53 58 -20 87
-23 207 -23 115 0 154 4 218 23 192 55 315 160 320 271 2 53 -6 58 -40 27 -48
-45 -120 -87 -195 -113 -87 -31 -243 -42 -329 -24 -79 17 -189 53 -189 62 0 4
21 31 46 61 63 74 152 220 181 298 l24 65 77 23 c285 87 537 286 641 507 36
77 59 155 66 230 3 33 8 78 11 100 7 53 -9 36 -31 -35 -27 -85 -99 -233 -150
-310 -84 -126 -216 -225 -366 -274 -65 -21 -164 -40 -193 -37 -5 1 -8 37 -7
80 5 167 -37 346 -119 519 -41 85 -134 242 -144 242 -2 0 19 -64 45 -142 88
-258 110 -489 68 -703 -19 -103 -55 -218 -86 -279 l-15 -28 -34 33 c-54 52
-114 151 -144 239 -32 92 -40 84 -40 -44 0 -112 40 -257 97 -348 13 -21 23
-40 23 -44 0 -9 -122 -154 -129 -154 -13 0 -78 75 -114 131 -99 151 -127 262
-158 609 -22 262 -69 382 -180 461 l-29 20 34 -79 c67 -155 78 -221 85 -492 7
-243 7 -246 39 -329 34 -90 117 -251 182 -353 l40 -63 -32 -28 c-18 -16 -67
-52 -108 -80 -90 -61 -200 -144 -294 -224 -42 -34 -67 -50 -62 -38 73 171 99
311 93 480 -4 91 -11 151 -26 200 -23 75 -79 198 -105 230 l-17 20 5 -20 c15
-62 28 -241 28 -390 0 -289 -49 -500 -148 -632 l-24 -31 -47 15 c-79 24 -237
28 -327 9 -94 -21 -96 -20 -150 89 -96 195 -125 480 -85 844 6 51 8 95 6 97
-7 7 -52 -74 -81 -145 -38 -94 -56 -196 -56 -319 0 -127 18 -232 60 -357 17
-49 30 -93 30 -98 0 -5 -21 10 -47 34 -72 67 -177 149 -279 218 -50 34 -107
76 -127 94 l-37 32 60 100 c72 119 140 257 171 345 21 59 23 84 24 275 1 119
7 238 14 275 14 71 56 211 76 250 7 14 16 36 20 50 6 21 -1 17 -45 -25 -104
-100 -134 -198 -160 -525 -19 -228 -39 -313 -110 -449 -45 -86 -129 -196 -149
-196 -8 0 -41 33 -73 72 l-60 72 41 83 c52 107 81 220 80 317 0 42 -4 85 -8
96 -7 16 -11 10 -24 -35 -23 -74 -86 -186 -141 -246 -24 -27 -46 -47 -48 -44
-14 15 -69 167 -89 245 -21 79 -24 113 -24 275 1 154 4 202 23 285 18 81 66
234 107 340 11 30 -63 -80 -108 -160 -100 -175 -146 -338 -154 -542 -6 -138
-7 -143 -27 -138 -195 40 -237 55 -339 119 -151 94 -248 228 -341 471 -44 115
-47 117 -41 35 26 -324 198 -561 530 -727 81 -41 221 -93 248 -93 8 0 18 -12
22 -27 15 -64 91 -201 166 -299 43 -57 79 -106 79 -108 0 -2 -30 -13 -67 -24
-240 -76 -433 -52 -609 74 -41 30 -77 54 -80 54 -2 0 -4 -12 -4 -27 0 -124
125 -237 322 -294 103 -29 280 -36 373 -15 69 17 154 54 187 83 16 14 23 10
83 -45 37 -33 110 -94 162 -134 135 -103 287 -229 360 -300 l63 -59 -28 -24
c-15 -14 -30 -25 -34 -25 -4 0 -33 17 -65 38 -32 22 -89 52 -128 68 -63 25
-82 28 -187 29 -64 0 -119 -3 -123 -7 -21 -21 88 -191 171 -268 36 -33 101
-77 161 -108 56 -29 113 -66 127 -83 40 -47 60 -130 60 -239 -1 -87 -5 -106
-47 -226 -70 -196 -81 -278 -81 -604 -1 -313 12 -440 71 -673 71 -286 170
-490 337 -697 90 -112 352 -371 511 -505 215 -182 335 -306 376 -390 l34 -69
6 -291 c4 -159 12 -491 19 -738 8 -246 11 -450 7 -453 -3 -4 -21 3 -39 14 -39
24 -87 18 -136 -17 -44 -31 -121 -29 -152 4 -15 16 -39 27 -69 31 -25 4 -59
16 -76 28 -27 19 -41 21 -145 18 l-114 -3 -33 36 c-39 43 -59 86 -68 150 -6
33 -14 50 -34 65 -16 10 -33 36 -39 58 l-12 40 -40 -9 c-53 -12 -94 14 -147
93 -35 53 -41 57 -76 58 -49 0 -107 42 -107 77 0 45 -40 120 -70 133 -36 15
-54 36 -68 78 -39 115 -146 159 -275 113 -72 -25 -112 -17 -164 30 -24 22 -49
39 -58 39 -8 0 -15 5 -15 11 0 8 -18 10 -59 6 l-58 -6 -6 34 c-4 26 -21 49
-67 92 l-62 57 7 51 6 50 -35 -34 c-20 -19 -42 -53 -49 -75 -13 -39 -16 -41
-62 -47 -37 -4 -54 -12 -75 -36 l-27 -30 -139 1 c-160 1 -195 11 -213 62 -22
60 -61 91 -147 115 -86 24 -91 25 -180 12 -74 -11 -89 -7 -113 34 -11 17 -38
41 -60 54 -41 23 -53 53 -31 75 22 22 7 161 -19 187 -6 6 -11 24 -11 39 0 18
-7 31 -17 35 -10 4 -42 31 -72 60 -30 30 -69 60 -87 68 -19 8 -44 23 -56 35
-16 15 -31 20 -49 16 -14 -3 -35 1 -45 8 -15 11 -79 36 -104 41 -27 6 -99 29
-112 36 -10 5 -27 9 -39 9 -11 0 -30 5 -42 12 -12 6 -44 10 -70 9 -59 -3 -77
11 -77 55 0 18 -7 40 -16 48 -20 21 -68 20 -85 0 -11 -13 -25 -15 -71 -10 -50
6 -58 5 -67 -13 -15 -27 -47 -35 -82 -21 -22 10 -36 10 -54 2 -20 -10 -27 -8
-42 12 -20 26 -68 42 -78 26 -3 -5 -20 -10 -37 -10 -22 0 -41 11 -69 40 -22
22 -43 40 -48 40 -5 0 -20 15 -32 33 -33 45 -49 56 -87 57 -26 0 -43 9 -72 40
-30 31 -46 40 -72 40 -24 0 -43 9 -64 28 -38 37 -60 44 -75 26 -10 -12 -23
-14 -53 -9 -23 3 -66 8 -96 11 -53 5 -57 4 -93 -30 -32 -30 -43 -34 -70 -30
-18 3 -45 15 -60 26 -39 27 -91 17 -135 -25 -28 -27 -41 -32 -78 -31 -24 0
-47 4 -51 7 -3 4 2 26 12 49 9 24 23 58 30 77 7 19 23 42 36 52 l24 18 -23 44
c-20 38 -22 53 -17 103 6 50 4 66 -14 100 -19 36 -20 48 -11 87 12 54 0 127
-30 189 -15 32 -20 62 -20 128 0 109 -21 174 -69 217 -20 17 -43 49 -50 70 -8
21 -31 57 -52 80 -21 22 -47 60 -59 84 -19 37 -21 48 -11 79 6 21 11 45 11 54
0 31 -49 94 -92 118 -40 22 -48 23 -79 12 -50 -18 -73 -17 -121 8 -37 20 -64
24 -188 28 -94 4 -154 11 -170 19 -13 8 -56 15 -94 15 l-70 1 -61 76 -60 76
-60 8 c-33 4 -83 13 -111 21 -46 13 -53 19 -76 66 -24 48 -25 54 -12 102 12
47 12 54 -8 96 -27 56 -32 60 -90 60 -44 0 -49 3 -86 50 -34 42 -42 63 -52
123 -6 39 -14 85 -17 100 l-5 29 -71 -8 c-95 -11 -154 -11 -166 1 -6 6 9 112
40 285 27 151 72 401 100 555 50 278 338 1875 363 2011 12 63 19 78 67 135
120 142 421 541 432 572 4 12 27 5 152 -47 87 -36 226 -74 335 -92 140 -23
381 -14 515 20 235 58 425 147 599 278 184 139 323 305 434 518 139 267 200
513 217 880 3 74 11 184 17 244 l11 109 41 39 c76 72 320 264 483 381 180 129
292 206 745 510 705 474 958 676 1025 817 78 163 154 458 308 1185 67 317 183
917 204 1055 5 30 25 143 44 250 20 107 57 314 82 460 25 145 48 267 51 269 2
3 40 -12 83 -33 l78 -38 -4 -52 c-3 -28 -8 -79 -12 -114 -8 -69 -9 -68 68
-162 25 -30 48 -59 52 -64 6 -7 123 64 139 84 3 3 40 28 83 54 l78 49 77 -13
c42 -8 88 -21 102 -30 14 -9 46 -31 72 -49 27 -18 52 -30 58 -26 11 7 12 162
1 184 -5 9 -4 52 0 95 8 66 6 87 -8 125 -9 25 -23 50 -31 55 -10 5 -12 18 -8
42 6 28 2 37 -23 60 -38 33 -47 73 -27 112 9 17 20 32 25 34 6 2 7 26 3 58 -7
57 5 97 45 144 33 38 43 65 43 111 0 33 4 45 15 45 8 0 15 6 16 13 8 157 15
182 48 173 20 -6 56 23 65 52 4 11 16 24 27 27 18 6 20 13 15 88 -3 59 0 89
10 109 15 30 7 61 -18 71 -17 6 -150 -6 -165 -16 -6 -4 -23 -3 -37 2 -23 9
-24 13 -15 43 5 18 9 51 8 73 -1 59 -1 60 28 89 23 23 28 25 42 12 18 -16 97
-46 124 -46 18 0 53 -17 75 -37 7 -7 34 -22 60 -33 l47 -21 20 24 c11 14 30
28 42 32 15 4 23 14 23 28 0 45 21 95 55 130 34 35 36 36 112 36 44 0 79 5 81
11 2 5 10 10 17 10 7 0 15 7 18 15 4 10 17 13 44 10 21 -2 56 -4 78 -4 34 -1
43 -6 57 -31 11 -19 25 -30 40 -30 28 -1 58 -22 58 -41 0 -8 5 -21 11 -29 8
-12 9 -8 8 15 -1 17 2 38 6 48 4 9 5 32 2 50 -2 17 0 43 5 56 5 16 5 28 -2 35
-17 17 -11 65 10 88 11 12 20 30 20 39 0 16 10 18 75 17 50 0 78 -5 86 -14 6
-8 18 -14 25 -14 8 0 16 -11 20 -25 6 -25 36 -41 54 -30 5 3 23 -1 39 -10 36
-18 74 -19 122 -2 35 12 35 13 22 44 -7 17 -17 34 -23 38 -15 9 -12 45 5 51 8
4 15 17 15 30 0 26 -9 41 -47 76 -28 26 -30 64 -4 73 33 10 81 72 81 104 0 16
9 45 21 65 11 19 19 47 17 62 -3 23 4 30 41 50 24 13 50 24 57 24 7 0 26 11
42 25 23 19 36 23 64 19 24 -4 44 -1 62 11 21 14 29 15 41 5 11 -9 32 -11 69
-6 73 8 114 -1 121 -28 14 -46 37 -87 53 -93 9 -2 26 -9 37 -13 11 -5 39 -8
63 -8 36 1 42 4 42 23 0 12 -3 25 -7 29 -4 3 -8 28 -9 54 -3 50 11 92 32 92 7
0 16 5 19 10 4 7 -2553 10 -7664 10 l-7671 0 1 -2352z m11709 -435 c-6 -37
-41 -223 -77 -413 -35 -190 -71 -379 -78 -420 -17 -95 -119 -588 -145 -700
-11 -47 -31 -139 -46 -205 -33 -151 -96 -391 -136 -515 -54 -169 -89 -228
-192 -328 -93 -90 -108 -101 -706 -494 -240 -157 -488 -340 -670 -494 -79 -67
-213 -186 -268 -237 -35 -33 -65 -57 -67 -55 -14 14 85 272 152 398 80 150
152 226 318 335 108 71 159 100 495 282 265 144 264 144 370 224 41 31 89 74
107 97 65 81 143 249 143 307 0 16 22 39 78 81 98 74 155 127 204 187 46 59
50 82 7 41 l-32 -29 7 27 c3 14 9 34 13 45 3 10 -11 -4 -32 -32 -37 -49 -195
-208 -201 -202 -1 1 4 23 12 48 18 55 7 117 -28 149 -45 42 -149 16 -260 -62
-35 -25 -112 -71 -173 -103 -287 -151 -307 -169 -417 -361 -111 -196 -138
-220 -294 -269 -225 -70 -461 -180 -621 -287 -33 -22 -43 -25 -43 -13 0 72 97
951 145 1310 13 99 34 255 46 348 12 92 26 167 30 167 5 0 9 -5 9 -10 0 -6 11
-15 25 -20 14 -5 25 -14 25 -20 0 -5 11 -10 24 -10 19 0 29 -11 51 -56 l27
-56 27 26 c15 14 37 26 48 26 12 0 24 4 27 8 3 5 19 7 36 4 25 -4 38 2 66 29
27 26 34 41 34 72 0 43 26 106 47 114 7 3 13 13 13 22 1 23 68 53 91 41 10 -6
27 -10 38 -10 12 0 21 -4 21 -10 0 -5 19 -10 43 -10 64 -1 126 -32 133 -69 6
-30 7 -30 35 -15 18 9 29 23 29 35 0 33 17 56 65 89 25 17 45 37 45 44 0 15
68 63 96 68 11 1 33 -5 48 -16 44 -28 91 -16 141 36 47 50 66 98 67 171 0 29
6 66 13 82 13 28 20 37 72 84 19 17 20 24 11 48 -20 54 39 144 75 115 7 -5 32
-12 57 -15 66 -8 141 -26 155 -37 7 -6 44 -9 86 -6 51 3 82 0 101 -10 26 -13
29 -12 79 36 40 39 59 50 84 50 24 0 34 6 43 25 7 14 19 28 27 31 8 4 15 12
15 20 0 7 11 21 25 30 14 9 28 27 31 39 3 13 21 30 45 41 30 15 45 31 64 72
14 29 25 59 25 68 0 20 40 97 47 90 3 -3 0 -36 -7 -73z m-2904 -1425 c-33
-961 -53 -1360 -97 -1893 -15 -189 -25 -256 -44 -315 -13 -41 -38 -127 -54
-190 -26 -103 -43 -187 -111 -542 -15 -82 -26 -111 -74 -191 -149 -254 -371
-479 -654 -662 -95 -61 -194 -117 -199 -112 -2 2 22 64 53 138 209 497 413
1207 529 1839 8 41 21 113 30 160 9 47 27 147 40 224 13 76 31 159 39 185 8
25 39 123 69 216 171 532 210 710 206 925 -2 93 -2 96 34 154 21 33 37 64 37
69 0 5 7 24 15 43 8 19 22 49 30 68 12 28 26 39 68 54 28 11 59 22 67 25 8 3
17 6 19 6 2 1 1 -90 -3 -201z m-851 -619 c-51 -158 -172 -651 -219 -889 -107
-538 -154 -857 -166 -1130 -13 -285 -50 -482 -129 -694 -39 -103 -132 -296
-178 -370 -65 -102 -81 -126 -137 -206 -33 -47 -92 -125 -130 -175 -38 -49
-71 -91 -72 -93 -2 -3 -196 98 -207 108 -10 9 -5 46 48 350 20 113 49 282 66
375 16 94 44 253 61 355 31 176 33 197 33 445 0 148 -6 311 -13 380 -18 157
-20 512 -4 590 9 47 19 66 45 88 17 15 62 58 100 94 l67 66 0 94 c0 51 2 93 6
93 3 0 31 -18 62 -39 53 -35 65 -39 142 -45 79 -5 91 -4 168 26 73 28 92 41
145 98 80 85 139 204 156 315 13 85 10 81 101 151 52 39 64 42 55 13z m-4111
-64 c11 -8 34 -15 52 -15 45 0 79 -31 93 -85 11 -42 13 -45 45 -45 25 0 39 7
56 31 18 23 29 29 47 24 14 -3 33 1 48 11 24 16 25 15 25 -5 0 -61 -43 -425
-56 -481 -42 -169 -140 -298 -281 -369 -76 -38 -138 -23 -190 46 -15 21 -32
41 -37 45 -22 15 -7 66 40 138 44 67 54 76 96 89 42 13 48 18 54 48 3 18 17
42 30 52 30 23 30 30 0 89 -13 26 -26 67 -29 90 -3 24 -14 54 -25 65 -40 44
-56 90 -56 163 0 61 3 74 24 96 29 31 38 33 64 13z m1436 -605 c7 -16 16 -30
19 -30 4 0 25 -18 47 -40 21 -22 53 -42 69 -46 17 -3 51 -25 78 -49 40 -37 47
-50 47 -81 0 -20 5 -54 12 -75 10 -37 14 -39 50 -39 29 0 45 6 58 23 14 17 29
22 72 23 29 1 71 6 93 11 35 8 44 6 72 -17 20 -15 33 -34 33 -48 0 -28 15 -59
42 -89 11 -12 24 -40 28 -62 9 -50 -18 -110 -60 -135 -16 -9 -38 -32 -50 -52
l-22 -35 26 -39 c23 -35 26 -50 26 -121 0 -64 -4 -87 -19 -108 -17 -24 -18
-35 -10 -106 5 -50 21 -109 41 -157 l32 -78 -23 -157 c-25 -182 -50 -297 -114
-543 -25 -96 -57 -229 -72 -295 -14 -66 -28 -127 -31 -136 -3 -11 -34 -20
-116 -33 -174 -28 -313 -79 -507 -189 -169 -94 -400 -346 -500 -544 -67 -134
-123 -323 -137 -464 l-7 -72 -135 -64 c-74 -35 -137 -61 -140 -58 -5 5 52 359
88 545 11 52 42 221 70 375 54 296 160 835 185 945 8 36 31 139 50 230 74 345
107 486 226 965 74 302 172 680 207 800 8 26 13 30 41 27 17 -1 46 5 63 14 27
14 78 25 144 33 6 0 17 -12 24 -29z m-3837 -789 c13 -16 31 -59 41 -95 13 -52
25 -74 60 -111 47 -48 66 -54 86 -30 7 9 29 15 54 15 22 0 54 7 70 15 38 20
56 13 104 -39 40 -44 65 -53 167 -59 20 -1 36 -11 50 -32 11 -16 45 -64 76
-105 142 -193 233 -385 253 -535 3 -22 -8 -166 -24 -320 -17 -154 -44 -417
-60 -585 -63 -635 -71 -713 -106 -1020 -57 -513 -117 -950 -154 -1113 -6 -27
-13 -67 -15 -89 -7 -50 -51 -184 -71 -215 -35 -55 -111 -15 -254 132 -110 113
-169 180 -277 315 -6 8 -32 40 -56 70 -24 30 -72 96 -107 145 -35 50 -66 92
-70 95 -3 3 -36 49 -73 102 -54 79 -67 105 -67 136 0 45 22 302 50 577 11 110
27 268 35 350 8 83 39 395 69 695 30 300 60 597 65 660 6 63 15 160 21 215 5
55 24 267 41 470 34 407 37 420 92 356z m1294 -282 c-2 -37 -8 -72 -12 -79 -6
-9 -34 14 -97 80 l-89 94 35 18 c32 16 38 17 58 4 28 -18 77 -10 86 13 11 28
24 -59 19 -130z m25027 -91 c8 -13 17 -43 20 -68 122 -925 146 -1160 153
-1487 11 -460 -33 -792 -154 -1168 -19 -60 -38 -114 -43 -118 -4 -4 -20 7 -37
25 -16 18 -53 55 -83 83 l-54 50 -13 -90 c-26 -188 -102 -453 -193 -676 -27
-67 -52 -124 -54 -126 -15 -16 -489 739 -566 902 -64 135 -118 289 -155 445
-64 274 -93 691 -76 1094 6 131 12 241 14 243 2 2 12 -15 22 -37 20 -45 23
-46 51 -25 10 8 31 15 46 15 21 0 29 6 34 24 3 14 3 30 -1 36 -4 6 -1 17 5 25
7 8 10 22 6 30 -6 17 13 65 26 65 4 0 8 11 8 24 0 19 7 25 33 30 23 4 44 19
67 47 32 41 121 102 150 104 8 1 23 2 33 3 9 1 27 13 39 27 12 14 30 25 39 25
44 0 79 86 48 117 -9 9 -8 21 5 47 9 20 21 36 27 36 5 0 14 11 19 25 5 14 14
25 20 25 20 0 80 52 80 69 0 28 58 80 96 87 20 4 64 4 99 0 58 -6 65 -4 75 14
6 11 19 20 29 20 11 0 31 14 45 31 42 50 116 64 140 27z m681 -203 c158 -40
154 -14 46 -342 -89 -272 -139 -398 -140 -359 -1 26 -29 516 -36 634 -6 109
-16 104 130 67z m-6472 -124 c29 -13 81 -44 117 -67 77 -51 132 -60 226 -37
67 15 78 13 164 -37 19 -11 49 -20 67 -20 24 0 37 -7 53 -30 17 -24 29 -30 59
-30 20 0 56 -9 79 -20 22 -11 54 -20 70 -20 16 0 41 9 55 20 14 11 33 20 42
20 23 0 16 -25 -41 -160 -53 -128 -108 -224 -168 -293 -139 -163 -183 -387
-221 -1117 -21 -408 -38 -536 -76 -585 -11 -14 -29 -25 -39 -25 -25 0 -120
106 -187 208 -162 246 -255 572 -293 1032 -20 241 -10 971 16 1175 6 41 8 46
16 30 5 -11 33 -31 61 -44z m2464 -162 l16 -58 51 -3 c46 -3 51 -5 54 -28 4
-37 -128 -739 -165 -873 -18 -64 -27 -75 -49 -56 -42 35 -56 90 -164 651 -16
87 -30 166 -30 176 0 9 16 43 35 74 25 40 44 58 63 63 48 10 132 64 132 84 0
72 33 54 57 -30z m1069 -317 c0 -185 6 -409 12 -497 6 -88 27 -374 46 -635 39
-526 59 -940 54 -1099 l-3 -104 -74 124 c-74 125 -182 285 -356 524 -219 301
-258 449 -285 1090 -5 132 -10 363 -10 513 0 227 2 272 14 272 15 0 101 -65
125 -94 13 -15 26 -16 105 -10 117 9 161 33 171 94 8 50 32 62 120 66 58 2 60
3 57 28 -3 20 12 66 21 66 1 0 2 -152 3 -338z m633 -147 c1 -137 -6 -405 -15
-595 -19 -433 -21 -857 -5 -968 22 -148 43 -200 117 -283 302 -341 536 -959
574 -1518 l10 -149 -64 -133 c-66 -139 -161 -371 -192 -471 -10 -32 -20 -58
-23 -58 -14 0 -122 230 -263 560 -148 347 -336 777 -370 844 l-30 59 46 291
c148 938 205 1640 193 2386 -5 304 -3 350 8 320 10 -26 14 -101 14 -285z
m-2814 153 l-7 -47 39 -11 c36 -11 41 -18 78 -100 37 -82 43 -90 80 -104 23
-9 71 -16 110 -16 l70 0 49 -172 c64 -227 116 -402 216 -733 10 -33 48 -157
83 -275 36 -118 117 -386 181 -595 296 -976 343 -1153 400 -1507 102 -627 143
-1372 117 -2113 -7 -181 -14 -331 -17 -334 -2 -2 -23 9 -47 26 -180 128 -762
473 -798 473 -15 0 -98 -61 -187 -138 -40 -35 -77 -60 -83 -56 -14 8 -6 99 20
233 l18 93 -61 39 c-152 97 -396 209 -619 284 -71 24 -131 46 -134 49 -12 12
-65 728 -83 1131 -13 284 -13 997 0 1235 47 863 131 1333 385 2155 19 61 64
209 100 330 36 121 68 227 71 235 11 29 25 -34 19 -82z m-15098 -1061 c-36
-61 -99 -120 -165 -155 -63 -33 -162 -62 -213 -62 -32 0 -29 3 41 41 88 48
323 203 341 226 25 29 21 -6 -4 -50z m-2852 -1319 c-19 -180 -27 -432 -35
-1148 -9 -825 -16 -984 -61 -1384 -10 -99 -21 -181 -23 -183 -2 -2 -17 9 -32
25 -38 37 -179 92 -238 92 -43 0 -95 16 -107 32 -9 13 -122 21 -180 14 -49 -7
-57 -12 -87 -52 -20 -26 -43 -46 -60 -50 -15 -3 -55 -15 -89 -27 -55 -18 -69
-19 -112 -9 -46 11 -53 9 -97 -15 -26 -14 -60 -46 -77 -70 -30 -42 -51 -51
-105 -44 -24 4 -127 -50 -138 -72 -6 -12 -21 -40 -32 -62 -12 -22 -35 -69 -53
-105 -41 -85 -66 -110 -102 -103 -26 5 -28 8 -23 47 6 47 14 124 56 536 17
162 39 372 50 466 11 94 20 177 20 183 0 14 126 73 204 96 30 9 60 22 66 30 6
7 25 17 43 21 94 20 312 146 467 269 185 148 339 366 416 589 49 142 57 211
59 531 l2 300 129 72 c71 39 132 72 137 72 4 1 5 -23 2 -51z m19781 -428 c161
-253 324 -527 324 -542 0 -24 -31 -102 -79 -204 -87 -182 -227 -364 -281 -364
-23 0 -31 7 -45 43 -28 70 -44 197 -60 487 -29 525 -45 700 -80 862 -8 37 -15
71 -15 75 0 10 89 -125 236 -357z m-20701 -112 c-22 -275 -79 -537 -149 -683
-51 -107 -103 -168 -194 -229 -86 -57 -222 -130 -222 -119 0 28 104 812 110
828 4 11 62 52 131 93 68 40 169 99 224 132 55 32 102 59 104 60 1 0 0 -37 -4
-82z m-3324 -225 c122 -104 161 -150 193 -226 14 -34 48 -118 77 -187 60 -147
173 -398 236 -524 l45 -89 -15 -191 c-39 -502 -81 -962 -88 -970 -5 -6 -18 1
-31 17 -22 24 -25 25 -55 12 -38 -16 -73 -68 -73 -107 0 -18 -9 -33 -26 -44
-14 -10 -34 -34 -45 -56 -11 -21 -25 -38 -33 -38 -7 0 -23 -9 -36 -20 -29 -25
-49 -25 -100 1 -33 17 -46 20 -65 11 -18 -8 -26 -8 -35 4 -7 8 -22 14 -33 14
-12 0 -41 8 -65 17 l-44 17 6 845 c3 465 10 914 15 996 40 664 37 631 59 613
9 -7 60 -50 113 -95z m24701 -840 c64 -126 145 -291 181 -368 118 -255 199
-439 224 -505 26 -69 208 -445 228 -470 7 -8 23 -35 36 -60 13 -25 41 -67 62
-93 20 -27 37 -55 37 -63 0 -21 -39 -36 -75 -30 -19 4 -36 2 -40 -4 -3 -5 -17
-10 -29 -10 -14 0 -35 -14 -53 -35 -23 -26 -38 -35 -62 -35 -26 0 -31 -4 -31
-23 0 -17 -9 -26 -35 -36 -19 -7 -42 -20 -52 -29 -11 -11 -33 -17 -64 -17 -26
0 -51 -3 -55 -8 -4 -4 -8 -33 -9 -65 -5 -155 -2 -142 -39 -157 -19 -8 -42 -22
-51 -32 -14 -14 -32 -17 -89 -14 -45 1 -74 7 -78 15 -9 15 -124 20 -133 5 -4
-5 -28 -9 -55 -9 -38 0 -54 -5 -70 -22 -11 -12 -20 -25 -20 -30 0 -4 -9 -8
-19 -8 -20 0 -71 -57 -71 -78 0 -6 -13 -18 -29 -26 -16 -9 -47 -38 -70 -65
-27 -32 -53 -52 -72 -56 -17 -4 -46 -21 -65 -37 -19 -17 -38 -28 -41 -24 -7 6
5 93 32 231 22 114 42 223 65 345 11 63 25 135 31 160 6 25 15 68 19 95 4 28
20 109 35 180 15 72 31 153 35 180 8 52 14 79 80 395 23 107 52 247 66 310 13
63 37 178 54 255 16 77 44 213 62 303 18 89 35 162 38 162 3 0 58 -102 122
-227z m-10752 -4608 c274 -49 571 -44 790 11 l95 24 15 -22 c47 -69 202 -255
278 -332 98 -99 186 -166 259 -197 56 -23 77 -55 93 -138 23 -126 7 -432 -41
-751 -30 -198 -70 -424 -78 -432 -11 -12 -600 32 -966 73 -300 33 -714 97
-809 126 -17 5 -18 13 -12 132 37 683 112 1375 165 1515 10 24 15 27 39 22 15
-3 92 -17 172 -31z m-756 -460 c41 -418 82 -877 92 -1037 l7 -108 -93 0 c-51
0 -156 -7 -232 -16 -77 -9 -141 -14 -142 -12 -4 4 3 70 45 448 52 476 68 561
150 803 70 208 122 332 130 311 4 -10 24 -185 43 -389z m2938 198 c179 -175
338 -373 404 -506 45 -89 60 -147 75 -307 l12 -133 -40 -36 c-52 -46 -68 -73
-82 -138 -7 -36 -7 -60 0 -82 8 -23 7 -45 -4 -88 -7 -32 -12 -75 -9 -95 4 -37
4 -38 -25 -32 -20 4 -40 -1 -64 -15 -19 -12 -47 -21 -62 -21 -61 0 -120 -52
-132 -114 l-6 -39 -307 7 c-168 3 -308 8 -310 10 -2 3 28 94 66 203 145 411
306 919 357 1123 25 96 26 115 20 228 -6 95 -5 122 5 122 7 0 53 -39 102 -87z"/>
<path d="M15658 19993 c6 -2 12 -12 12 -21 0 -9 6 -25 13 -34 11 -14 27 -16
100 -12 86 5 87 5 97 -20 6 -18 17 -26 33 -26 64 0 136 51 137 98 l0 22 -202
-1 c-112 0 -197 -3 -190 -6z"/>
<path d="M16997 11360 c-36 -21 -100 -67 -140 -102 -40 -35 -116 -99 -167
-143 -319 -271 -443 -452 -466 -679 l-6 -61 -37 36 c-46 46 -103 57 -201 40
-65 -12 -195 -75 -185 -91 2 -4 28 -12 58 -19 96 -21 157 -74 157 -136 0 -30
116 -168 198 -238 93 -78 138 -95 279 -106 168 -12 197 -27 257 -130 25 -43
53 -81 62 -85 67 -26 308 213 419 416 64 118 41 135 -105 79 -89 -35 -160 -39
-310 -20 -88 11 -131 25 -137 46 -3 7 34 37 81 67 127 82 147 129 63 150 -21
5 -37 15 -37 22 0 6 24 27 53 45 76 47 96 68 103 105 5 25 0 43 -15 70 l-22
37 36 29 c65 54 67 91 5 123 -17 9 -30 23 -30 32 0 9 20 43 45 74 51 65 78
120 69 143 -3 9 -24 21 -45 26 -22 6 -39 17 -39 25 0 7 16 34 35 59 19 25 43
62 53 83 19 38 46 132 40 139 -2 1 -34 -15 -71 -36z"/>
</g>
</svg>
